<svg width="296" height="217" fill="none" xmlns="http://www.w3.org/2000/svg"><path d="M101.728 88.772c-7.136-2.544-12.39-11.035-16.387-16.983-4.295-6.41-8.095-13.116-12.027-19.757-2.147-3.667-7.896-.33-5.715 3.337 4.691 7.896 9.184 15.925 14.57 23.392 4.626 6.443 10.044 13.612 17.808 16.354 4.031 1.454 5.749-4.923 1.751-6.343ZM144.613 53.915c-10.209 0-19.823-2.808-24.019-4.724-1.883-.86-2.742-3.106-1.883-4.99.859-1.883 3.105-2.742 4.988-1.883 3.238 1.487 15.595 4.13 24.648 4.064 9.317-.099 20.253-2.907 23.26-4.328 1.883-.892 4.13-.066 5.022 1.784.892 1.883.066 4.13-1.785 5.022-4.328 2.049-16.486 4.956-26.431 5.055h-3.8ZM68.392 168.595c-14.207 3.568-25.705-.859-29.637-2.412-10.639-4.262-16.883-11.035-20.484-15.033a63.866 63.866 0 0 1-10.903-16.751c-.397-.859-1.652-.595-1.685.331-.1 6.211.76 15.198 5.385 24.548.76 1.553 3.899 7.632 10.077 13.942 3.569 3.602 10.705 10.87 21.872 13.91 2.643.727 24.02 6.211 37.07-7.764 4.494-4.824 6.575-10.408 7.5-14.901.496-2.379-2.213-4.163-4.196-2.742-3.634 2.511-8.656 5.253-15 6.872Z" fill="#fff"/><path d="M77.312 61.514c8.657 8.59 15.463 14.538 22.5 18.403a.64.64 0 0 0 .925-.727c-7.962-31.123-34.03-59.47-64.79-68.292a.518.518 0 0 0-.529.099c-1.553 1.123-5.683 6.08-6.707 7.335-.132.165-.198.43-.099.627.595 1.52 3.139 7.732 5.485 10.606.033.033.066.1.132.132 1.288 1.553-.826 3.602-2.346 2.247-.1-.1-.198-.165-.297-.264-3.304-3.04-4.99-6.608-5.881-9.251-.165-.43-.727-.595-1.058-.232-2.775 2.842-6.046 6.674-9.052 11.663a62.005 62.005 0 0 0-6.08 13.315.634.634 0 0 0 .199.66c1.354 1.19 6.839 6.014 9.713 7.567 1.52.826 6.245 3.172 12.39 3.04.628 0 1.255-.034 1.817-.066.826-.034 1.057 1.09.297 1.42-.528.198-1.057.397-1.585.562-5.254 1.487-9.978.793-12.456.231-2.016-.462-5.32-1.355-8.855-3.865-1.255-.86-2.247-2.082-3.304-3.271-.33-.364-.958-.232-1.09.264C5.055 60.292 3.502 66.9 1.916 73.475c-.033.165 0 .33.066.495.496.793 2.28 3.47 3.767 4.46 5.749 3.833 12.324 5.088 13.083 5.22 2.016.364 4.527.992 7.467 1.355 1.752.232 1.685 2.809-.099 2.908-2.808.165-5.683-.1-8.623-.43-5.881-.66-11.564-1.95-16.024-6.244-.397-.364-1.024-.132-1.057.396C.23 85.137.099 88.54 0 91.943c0 .496.297 1.025.595 1.454 3.337 4.725 8.061 7.963 10.77 9.251 5.022 2.346 10.507 3.469 15.066 3.932 2.016.231 2.049 3.106.067 3.403-.463.066-.893.099-1.289.165-10.936.991-19.427-5.716-21.905-7.698-.66-.529-1.223-1.024-1.718-1.454-.43-.396-1.09-.033-1.024.529.958 7.698 2.51 15.231 5.022 22.599.396 1.156.958 1.718 1.982 2.18 10.903 4.758 20.484 2.974 20.484 2.974.364-.066.727-.132 1.124-.198 1.321-.265 1.982 1.52.826 2.18-.198.1-.397.232-.595.331-7.5 3.965-15.462 2.114-19.064.925-.528-.165-1.024.396-.76.892a90.5 90.5 0 0 0 1.95 3.568c5.484 9.516 12.555 15.694 13.612 16.586.1.066.198.132.33.132.694.066 3.172.165 6.476-1.387.991-.463 1.817.859.991 1.552a28.251 28.251 0 0 1-3.469 2.412c-.363.232-.396.76-.066 1.024 5.253 4.296 16.024 8.392 23.788 8.954 2.908.231 5.848.231 8.855-.066.793-.066.958-1.123.264-1.487a40.333 40.333 0 0 1-7.698-4.857C37.17 145.831 30.694 116.36 40.97 93.166c9.614-21.707 30.297-29.934 35.715-31.85a.73.73 0 0 1 .628.198ZM136.056 44.433c-2.246-2.214-3.898-5.022-5.848-7.5-.297-.364-.793-.297-1.09-.364-2.313-.561-4.725.133-9.482 3.238-3.734 2.412-5.617 3.635-7.17 5.32 0 0-5.253 5.782-6.806 6.079-.76.165-1.09-.165-1.09-.165-.331-.298-.397-.76-.232-1.157.364-.727.793-1.42 1.256-2.048 4.262-5.947 10.077-9.978 16.619-13.05 1.288-.595 2.478-1.388 3.634-2.181.231-.165.297-1.024.066-1.223-1.024-1.057-2.18-1.949-3.205-2.973-5.187-5.353-10.737-10.309-16.883-14.471-.33-.232-.991-.397-1.288-.232-1.95 1.024-3.8 2.247-5.683 3.37a54.956 54.956 0 0 0-3.271 2.082c-1.42.958-2.874 1.949-4.163 3.105a52.8 52.8 0 0 0-4.526 4.494c-1.09 1.19-2.115 2.445-3.106 3.667a.961.961 0 0 0 .033 1.289c12.918 13.645 22.037 30.792 24.78 48.997.066.496.528.892 1.057.826 3.271-.264 6.442-1.156 9.548-2.94 9.648-5.518 16.057-18.337 17.709-32.71.033-.297-.066-.561-.264-.792-.198-.232-.396-.463-.595-.661ZM90.264 17.87c2.312-1.554 4.691-3.007 7.037-4.527.727-.463 1.454-.958 2.148-1.42.726-.496.66-1.554-.1-1.983-5.154-2.908-9.845-5.121-13.777-6.84 0 0-9.548-4.162-15.264-2.84-.727.164-1.355.396-1.355.396-1.817 1.321-3.634 2.61-5.32 4.063-2.08 1.785-3.501 4.064-4.162 6.774a2.912 2.912 0 0 0-.066.561c-.033.43.231.86.594 1.057 2.478 1.388 14.77 10.87 19.163 14.24.892.694 2.181.595 2.94-.264.794-.859 1.851-2.081 2.974-3.601.793-1.024 1.85-2.214 3.304-3.932.595-.595 1.19-1.222 1.884-1.685ZM62.378.325c-5.682.397-12.456 2.18-17.444 4.428-.727.33-.694 1.42.066 1.685a89.553 89.553 0 0 1 11.332 4.79.885.885 0 0 0 1.289-.727c.264-3.6 2.61-6.145 5.352-8.557.694-.628.264-1.685-.595-1.619ZM147.752 216.899c-6.608 0-12.423-4.461-15.495-11.928l-32.148-78.105 6.608-2.709 32.148 78.105c1.916 4.692 5.253 7.5 8.887 7.5 3.635 0 6.938-2.808 8.888-7.5l32.147-78.105 6.608 2.709-32.147 78.105c-3.106 7.467-8.888 11.928-15.496 11.928Z" fill="#fff"/><path d="M147.554 161.359c-10.044 0-18.932 4.626-24.35 11.729l12.158 29.571c5.32 12.951 19.031 12.951 24.384 0l12.158-29.571c-5.418-7.103-14.306-11.729-24.35-11.729Zm-7.731 35.088h-.232c-.991 0-1.817-.595-1.982-1.421l-2.114-13.05c-.133-.826.462-1.619 1.453-1.85 1.19-.265 2.313.396 2.478 1.354l2.115 13.018c.165.958-.595 1.85-1.718 1.949Zm9.912-.562c0 1.025-.926 1.884-2.049 1.851-1.09-.033-1.916-.925-1.916-1.917v-15.66c0-.991.826-1.884 1.916-1.917 1.123-.033 2.049.793 2.049 1.851v15.792Zm10.077-14.173-2.115 13.314c-.132.826-.991 1.421-1.982 1.421h-.265c-1.09-.099-1.85-.925-1.718-1.817l2.115-13.315c.132-.892 1.123-1.52 2.214-1.388 1.156.1 1.916.892 1.751 1.785ZM78.634 119.003l-23.293-7.599c-2.214-.727-2.247-4.56-.033-5.353l23.293-8.193c2.313-.826 4.625 1.321 4.625 4.295l-.033 12.555c0 2.907-2.246 5.022-4.56 4.295ZM123.171 116.128h-7.897a4.202 4.202 0 0 1-4.196-4.196v-7.896a4.202 4.202 0 0 1 4.196-4.196h7.897a4.202 4.202 0 0 1 4.196 4.196v7.896a4.202 4.202 0 0 1-4.196 4.196ZM217.036 118.606l23.293-7.599c2.213-.727 2.246-4.559.033-5.352l-23.293-8.194c-2.313-.826-4.626 1.322-4.626 4.295l.033 12.555c0 2.908 2.247 5.022 4.56 4.295Z" fill="#fff"/><path d="M190.637 130.534h-85.803c-10.01 0-18.172-8.161-18.172-18.172v-8.293c0-10.011 8.161-18.172 18.172-18.172h85.836c10.011 0 18.172 8.161 18.172 18.172v8.293c-.033 10.011-8.161 18.172-18.205 18.172Zm-85.803-34.725c-4.559 0-8.26 3.7-8.26 8.26v8.293c0 4.559 3.701 8.26 8.26 8.26h85.836c4.56 0 8.26-3.701 8.26-8.26v-8.293c0-4.56-3.7-8.26-8.26-8.26h-85.836Z" fill="#fff"/><path d="M194.239 88.772c7.136-2.544 12.389-11.035 16.387-16.983 4.295-6.41 8.095-13.116 12.027-19.757 2.147-3.667 7.863-.33 5.715 3.337-4.691 7.896-9.185 15.925-14.57 23.392-4.659 6.443-10.044 13.612-17.808 16.354-4.031 1.454-5.749-4.923-1.751-6.343ZM227.575 168.595c14.207 3.568 25.705-.859 29.637-2.412 10.638-4.262 16.883-11.035 20.484-15.033a63.837 63.837 0 0 0 10.903-16.751c.397-.859 1.652-.595 1.652.331.099 6.211-.76 15.198-5.385 24.548-.76 1.553-3.899 7.632-10.077 13.942-3.569 3.602-10.705 10.87-21.872 13.91-2.644.727-24.02 6.211-37.071-7.764-4.493-4.824-6.574-10.408-7.5-14.901-.495-2.379 2.214-4.163 4.196-2.742 3.668 2.511 8.69 5.253 15.033 6.872Z" fill="#fff"/><path d="M218.622 61.514c-8.657 8.59-15.463 14.538-22.5 18.403a.64.64 0 0 1-.925-.727c7.962-31.123 34.03-59.47 64.79-68.292a.531.531 0 0 1 .529.099c1.553 1.123 5.683 6.08 6.707 7.335.132.165.165.43.099.627-.595 1.52-3.139 7.732-5.485 10.606-.033.033-.066.1-.099.132-1.288 1.553.826 3.602 2.346 2.247.099-.1.198-.165.297-.264 3.304-3.04 4.989-6.608 5.881-9.251.166-.43.727-.595 1.058-.232 2.775 2.842 6.046 6.674 9.052 11.663a62.02 62.02 0 0 1 6.08 13.315.687.687 0 0 1-.166.66c-1.354 1.19-6.839 6.014-9.713 7.567-1.52.826-6.245 3.172-12.39 3.04-.628 0-1.255-.034-1.817-.066-.826-.034-1.057 1.09-.297 1.42.528.198 1.057.397 1.585.562 5.254 1.487 9.978.793 12.456.231 2.016-.462 5.32-1.355 8.855-3.865 1.255-.86 2.247-2.082 3.304-3.271.33-.364.958-.232 1.09.264 1.586 6.575 3.139 13.183 4.725 19.758.033.165 0 .33-.066.495-.496.793-2.28 3.47-3.767 4.46-5.782 3.833-12.324 5.088-13.05 5.22-2.016.364-4.527.992-7.5 1.355-1.751.232-1.685 2.809.099 2.908 2.808.165 5.683-.1 8.623-.43 5.881-.66 11.564-1.95 16.024-6.244.397-.364 1.024-.132 1.057.396.265 3.502.397 6.905.496 10.308 0 .496-.297 1.025-.595 1.454-3.337 4.725-8.061 7.963-10.771 9.251-5.021 2.346-10.506 3.469-15.032 3.932-2.016.231-2.049 3.106-.066 3.403.462.066.892.099 1.255.165 10.936.991 19.427-5.716 21.905-7.698.661-.529 1.223-1.024 1.718-1.454.43-.396 1.09-.033 1.024.529-.958 7.698-2.511 15.231-5.022 22.599-.396 1.156-.958 1.718-1.982 2.18-10.903 4.758-20.484 2.974-20.484 2.974a37.854 37.854 0 0 0-1.124-.198c-1.321-.265-1.982 1.52-.826 2.18.199.1.397.232.595.331 7.5 3.965 15.462 2.114 19.064.925.528-.165 1.024.396.76.892a91.024 91.024 0 0 1-1.95 3.568c-5.484 9.516-12.555 15.694-13.612 16.586-.099.066-.198.132-.33.132-.694.066-3.172.165-6.476-1.387-.991-.463-1.817.859-.991 1.552a28.188 28.188 0 0 0 3.469 2.412c.363.232.396.76.066 1.024-5.253 4.296-16.024 8.392-23.788 8.954a49.67 49.67 0 0 1-8.855-.066c-.793-.066-.958-1.123-.264-1.487a40.314 40.314 0 0 0 7.698-4.857c17.445-14.008 23.92-43.479 13.645-66.673-9.581-21.707-30.297-29.934-35.682-31.85-.298-.033-.529.033-.727.198ZM159.911 44.433c2.246-2.214 3.898-5.022 5.848-7.5.297-.364.793-.297 1.09-.364 2.313-.561 4.725.133 9.482 3.238 3.734 2.412 5.617 3.635 7.17 5.32 0 0 5.253 5.782 6.806 6.079.76.165 1.09-.165 1.09-.165.331-.298.397-.76.232-1.157-.364-.727-.76-1.42-1.256-2.048-4.262-5.947-10.077-9.978-16.619-13.05-1.288-.595-2.478-1.388-3.634-2.181-.231-.165-.297-1.024-.066-1.223 1.024-1.057 2.18-1.949 3.205-2.973 5.187-5.353 10.737-10.309 16.916-14.471.33-.232.991-.397 1.288-.232 1.95 1.024 3.8 2.247 5.683 3.37a54.958 54.958 0 0 1 3.271 2.082c1.421.958 2.874 1.949 4.163 3.105a52.68 52.68 0 0 1 4.526 4.494c1.091 1.19 2.115 2.445 3.106 3.667.331.397.297.925-.066 1.289-12.951 13.645-22.037 30.792-24.78 48.997-.066.496-.528.892-1.057.826-3.238-.264-6.442-1.156-9.548-2.94-9.648-5.518-16.057-18.337-17.742-32.71-.033-.297.066-.561.264-.792.231-.232.429-.463.628-.661ZM205.67 17.87c-2.313-1.554-4.691-3.007-7.037-4.527-.727-.463-1.421-.958-2.148-1.42-.727-.496-.661-1.554.099-1.983 5.155-2.908 9.846-5.121 13.778-6.84 0 0 9.548-4.162 15.264-2.84.727.164 1.355.396 1.355.396 1.817 1.321 3.634 2.61 5.319 4.063 2.081 1.785 3.502 4.064 4.163 6.774.033.165.066.363.066.561.033.43-.231.86-.595 1.057-2.478 1.388-14.768 10.87-19.163 14.24a2.156 2.156 0 0 1-2.94-.264 43.385 43.385 0 0 1-2.974-3.601c-.793-1.024-1.85-2.214-3.304-3.932-.561-.595-1.156-1.222-1.883-1.685ZM233.589.325c5.682.397 12.455 2.18 17.444 4.428.727.33.694 1.42-.066 1.685a89.558 89.558 0 0 0-11.332 4.79.885.885 0 0 1-1.289-.727c-.264-3.6-2.61-6.145-5.352-8.557-.694-.628-.264-1.685.595-1.619Z" fill="#fff"/></svg>