<svg width="296" height="217" fill="none" xmlns="http://www.w3.org/2000/svg"><path d="M102 89c-7-3-13-11-17-17L73 52c-2-4-8 0-5 3l14 24c5 6 10 13 18 16 4 2 6-5 2-6Zm43-35c-11 0-20-3-24-5-2-1-3-3-2-5s3-3 5-2c3 2 15 4 24 4 10 0 21-3 24-4 1-1 4 0 5 2s0 4-2 5c-4 2-17 5-27 5h-3ZM68 169c-14 3-25-1-29-3-11-4-17-11-21-15a64 64 0 0 1-11-17l-1 1a53 53 0 0 0 15 38c4 4 11 11 22 14 3 1 24 6 37-8 5-4 7-10 8-15 0-2-3-4-5-2-3 2-8 5-15 7Z" fill="#fff"/><path d="M77 62c9 8 16 14 23 18a1 1 0 0 0 1-1c-8-31-34-59-65-68a1 1 0 0 0-1 0 69 69 0 0 0-6 8l5 11c2 1-1 3-2 2-4-3-5-7-6-10h-1l-9 12a62 62 0 0 0-6 13 1 1 0 0 0 0 1l9 7a25 25 0 0 0 15 3v2h-2a26 26 0 0 1-21-3l-3-4-1 1-5 19v1l4 4c5 4 12 6 13 6l7 1c2 0 2 3 0 3l-8-1c-6 0-12-1-16-6l-2 1a219 219 0 0 0 1 11c3 5 8 8 10 10l15 4c2 0 2 3 0 3h-1c-11 1-19-6-22-8l-1-1c-1 0-2 0-1 1 1 7 2 15 5 22l2 2c10 5 20 3 20 3h1l1 2-1 1c-7 4-15 2-19 1 0-1-1 0 0 0a91 91 0 0 0 2 4c5 9 12 16 13 17 1 0 4 0 7-2 1 0 2 1 1 2a28 28 0 0 1-4 2v1a50 50 0 0 0 33 9v-1a40 40 0 0 1-7-5c-18-14-24-44-14-67 10-22 30-30 36-32a1 1 0 0 1 0 1Zm59-18-6-7h-1c-2-1-5 0-9 3l-8 5-6 6h-1l-1-1 2-2c4-6 10-10 16-13l4-2v-2l-3-3a108 108 0 0 0-18-14l-6 3a55 55 0 0 0-3 2l-5 3a53 53 0 0 0-4 5l-3 3a1 1 0 0 0 0 2c13 13 22 31 25 49l1 1 9-3c10-6 16-19 18-33v-1l-1-1ZM90 18l7-5 2-1v-2L86 3S76-1 70 0l-1 1-5 4-5 6a3 3 0 0 0 0 1l1 1 19 14h3l3-4 3-3 2-2ZM62 0 45 5v1a90 90 0 0 1 11 5 1 1 0 0 0 2 0c0-4 2-7 5-9 1-1 0-2-1-2Zm86 217c-7 0-13-5-16-12l-32-78 7-3 32 78c2 5 5 8 9 8 3 0 7-3 9-8l32-78 6 3-32 78c-3 7-9 12-15 12Z" fill="#fff"/><path d="M148 161c-10 0-19 5-25 12l12 30c6 13 19 13 25 0l12-30c-6-7-14-12-24-12Zm-8 35-2-1-3-13 2-2 2 1 3 13-2 2Zm10 0-2 2-2-2v-16l2-2 2 2v16Zm10-14-2 13-2 1h-1l-1-1 2-14 2-1 2 2Zm-81-63-24-8c-2 0-2-4 0-5l24-8c2-1 4 1 4 4v13c0 3-2 5-4 4Zm44-3h-8a4 4 0 0 1-4-4v-8a4 4 0 0 1 4-4h8a4 4 0 0 1 4 4v8a4 4 0 0 1-4 4Zm94 3 23-8c3-1 3-5 0-5l-23-9c-2 0-5 2-5 5v12c0 3 3 5 5 5Z" fill="#fff"/><path d="M191 131h-86c-10 0-18-9-18-19v-8c0-10 8-18 18-18h86c10 0 18 8 18 18v8c0 10-8 19-18 19Zm-86-35c-5 0-8 4-8 8v8c0 5 3 9 8 9h86c4 0 8-4 8-9v-8c0-4-4-8-8-8h-86Z" fill="#fff"/><path d="M194 89c7-3 13-11 17-17l12-20c2-4 8 0 5 3l-14 24c-5 6-10 13-18 16-4 2-6-5-2-6Zm34 80c14 3 25-1 29-3 11-4 17-11 21-15a64 64 0 0 0 11-17l1 1a53 53 0 0 1-15 38c-4 4-11 11-22 14-3 1-24 6-37-8-5-4-7-10-8-15 0-2 3-4 5-2 3 2 8 5 15 7Z" fill="#fff"/><path d="M219 62c-9 8-16 14-23 18a1 1 0 0 1-1-1c8-31 34-59 65-68a1 1 0 0 1 1 0 69 69 0 0 1 6 8l-5 11c-2 1 1 3 2 2 4-3 5-7 6-10h1l9 12a62 62 0 0 1 6 13 1 1 0 0 1 0 1l-9 7a25 25 0 0 1-15 3v2h2a26 26 0 0 0 21-3l3-4 1 1 5 19v1l-4 4c-6 4-12 6-13 6l-7 1c-2 0-2 3 0 3l8-1c6 0 12-1 16-6l2 1a220 220 0 0 1-1 11c-3 5-8 8-10 10l-15 4c-2 0-2 3 0 3h1c11 1 19-6 22-8l1-1c1 0 2 0 1 1-1 7-2 15-5 22l-2 2c-10 5-20 3-20 3a38 38 0 0 0-1 0l-1 2 1 1c7 4 15 2 19 1 0-1 1 0 0 0a91 91 0 0 1-2 4c-5 9-12 16-13 17-1 0-4 0-7-2-1 0-2 1-1 2a28 28 0 0 0 4 2v1c-6 5-16 9-24 9a50 50 0 0 1-9 0v-1a40 40 0 0 0 7-5c18-14 24-44 14-67a62 62 0 0 0-36-32v1Zm-59-18 6-7h1c2-1 5 0 9 3l8 5 6 6h1l1-1-2-2c-4-6-10-10-16-13l-4-2v-2l3-3a107 107 0 0 1 18-14l6 3a55 55 0 0 1 3 2l5 3a53 53 0 0 1 4 5l3 3v2a92 92 0 0 0-25 49l-1 1-9-3c-10-6-16-19-18-33v-1l1-1Zm46-26-7-5-3-1 1-2 13-7s10-4 16-3l1 1 5 4a13 13 0 0 1 5 7l-1 1-19 14a2 2 0 0 1-3 0 43 43 0 0 1-3-4l-3-3-2-2Zm28-18 17 5v1a90 90 0 0 0-11 5 1 1 0 0 1-2 0c0-4-2-7-5-9-1-1 0-2 1-2Z" fill="#fff"/></svg>