<svg xmlns="http://www.w3.org/2000/svg" xmlns:xlink="http://www.w3.org/1999/xlink" width="400" zoomAndPan="magnify" viewBox="0 0 300 299.999988" height="400" preserveAspectRatio="xMidYMid meet" version="1.0"><path stroke-linecap="butt" transform="matrix(0.75, 0, 0, 0.75, -1.652179, 55.667383)" fill="none" stroke-linejoin="miter" d="M -0.000219676 0.50078 L 146.249792 0.50078 " stroke="#ffffff" stroke-width="1" stroke-opacity="1" stroke-miterlimit="4"/><path stroke-linecap="butt" transform="matrix(0.75, 0, 0, 0.75, 79.544275, 136.195726)" fill="none" stroke-linejoin="miter" d="M -0.00174127 0.499448 L 76.164932 0.499448 " stroke="#ffffff" stroke-width="1" stroke-opacity="1" stroke-miterlimit="4"/><path stroke-linecap="butt" transform="matrix(0.505634, 0.553926, -0.553926, 0.505634, 108.587582, 56.044061)" fill="none" stroke-linejoin="miter" d="M 0.00168768 0.498145 L 41.535816 0.500097 " stroke="#ffffff" stroke-width="1" stroke-opacity="1" stroke-miterlimit="4"/><path stroke-linecap="butt" transform="matrix(0.75, 0.000000000000000272, -0.000000000000000272, 0.75, 0.570028, 151.329244)" fill="none" stroke-linejoin="miter" d="M 0.000378745 0.498507 L 78.239968 0.498507 " stroke="#ffffff" stroke-width="1" stroke-opacity="1" stroke-miterlimit="4"/><path stroke-linecap="butt" transform="matrix(0.75, 0, 0, 0.75, -1.653339, 253.73365)" fill="none" stroke-linejoin="miter" d="M 0.00132743 0.500966 L 141.579464 0.500966 " stroke="#ffffff" stroke-width="1" stroke-opacity="1" stroke-miterlimit="4"/><path stroke-linecap="butt" transform="matrix(0.75, 0, 0, 0.75, 129.762725, 79.303777)" fill="none" stroke-linejoin="miter" d="M -0.00134167 0.501214 L 80.331998 0.501214 " stroke="#ffffff" stroke-width="1" stroke-opacity="1" stroke-miterlimit="4"/><path stroke-linecap="butt" transform="matrix(-0.586327, 0.467675, -0.467675, -0.586327, 119.018749, 242.731226)" fill="none" stroke-linejoin="miter" d="M -0.000722702 0.500382 L 24.956197 0.500151 " stroke="#ffffff" stroke-width="1" stroke-opacity="1" stroke-miterlimit="4"/><path stroke-linecap="butt" transform="matrix(0.605282, -0.44287, 0.44287, 0.605282, 59.250832, 151.097126)" fill="none" stroke-linejoin="miter" d="M 0.00146642 0.498876 L 34.758109 0.502235 " stroke="#ffffff" stroke-width="1" stroke-opacity="1" stroke-miterlimit="4"/><path stroke-linecap="butt" transform="matrix(0.749984, 0.00492355, -0.00492355, 0.749984, 118.791558, 241.875009)" fill="none" stroke-linejoin="miter" d="M -0.0000448365 0.499999 L 76.163065 0.500008 " stroke="#ffffff" stroke-width="1" stroke-opacity="1" stroke-miterlimit="4"/><path stroke-linecap="butt" transform="matrix(0.591169, 0.46154, -0.46154, 0.591169, 175.907248, 242.625259)" fill="none" stroke-linejoin="miter" d="M 0.000114993 0.501656 L 24.249439 0.500588 " stroke="#ffffff" stroke-width="1" stroke-opacity="1" stroke-miterlimit="4"/><path stroke-linecap="butt" transform="matrix(0.749984, 0.00492355, -0.00492355, 0.749984, 190.013354, 254.108679)" fill="none" stroke-linejoin="miter" d="M 0.00110753 0.500931 L 76.164217 0.50094 " stroke="#ffffff" stroke-width="1" stroke-opacity="1" stroke-miterlimit="4"/><path stroke-linecap="butt" transform="matrix(0.75, 0.000000000000000248, -0.000000000000000248, 0.75, 1.229326, 178.688539)" fill="none" stroke-linejoin="miter" d="M 0.00152395 0.498615 L 85.850489 0.498615 " stroke="#ffffff" stroke-width="1" stroke-opacity="1" stroke-miterlimit="4"/><path stroke-linecap="butt" transform="matrix(0.649519, 0.375, -0.375, 0.649519, 66.056962, 178.538585)" fill="none" stroke-linejoin="miter" d="M 0.00184202 0.49884 L 33.061958 0.500218 " stroke="#ffffff" stroke-width="1" stroke-opacity="1" stroke-miterlimit="4"/><path stroke-linecap="butt" transform="matrix(0.75, 0.000000000000000482, -0.000000000000000482, 0.75, 87.345841, 191.071201)" fill="none" stroke-linejoin="miter" d="M 0.00241998 0.498815 L 44.179507 0.498815 " stroke="#ffffff" stroke-width="1" stroke-opacity="1" stroke-miterlimit="4"/><path stroke-linecap="butt" transform="matrix(0.75, 0, 0, 0.75, -2.4045, 40.725261)" fill="none" stroke-linejoin="miter" d="M -0.0023336 0.501736 L 118.909134 0.501736 " stroke="#ffffff" stroke-width="1" stroke-opacity="1" stroke-miterlimit="4"/><path stroke-linecap="butt" transform="matrix(0.605282, -0.44287, 0.44287, 0.605282, 86.773821, 40.493157)" fill="none" stroke-linejoin="miter" d="M 0.0000541018 0.501819 L 34.759772 0.500975 " stroke="#ffffff" stroke-width="1" stroke-opacity="1" stroke-miterlimit="4"/><path stroke-linecap="butt" transform="matrix(0.75, 0, 0, 0.75, 108.034384, 25.029256)" fill="none" stroke-linejoin="miter" d="M 0.00102916 0.497451 L 42.745824 0.497451 " stroke="#ffffff" stroke-width="1" stroke-opacity="1" stroke-miterlimit="4"/><path stroke-linecap="butt" transform="matrix(0.75, -0.000000000000000372, 0.000000000000000372, 0.75, 0.000006, 230.624981)" fill="none" stroke-linejoin="miter" d="M -0.000008 0.500025 L 118.958335 0.500025 " stroke="#ffffff" stroke-width="1" stroke-opacity="1" stroke-miterlimit="4"/><path stroke-linecap="butt" transform="matrix(-0.586327, 0.467675, -0.467675, -0.586327, 103.708841, 219.622571)" fill="none" stroke-linejoin="miter" d="M -0.00269168 0.50004 L 24.954228 0.499809 " stroke="#ffffff" stroke-width="1" stroke-opacity="1" stroke-miterlimit="4"/><path stroke-linecap="butt" transform="matrix(0.749994, 0.00291907, -0.00291907, 0.749994, 103.480646, 218.766311)" fill="none" stroke-linejoin="miter" d="M 0.00170569 0.499083 L 64.231363 0.499094 " stroke="#ffffff" stroke-width="1" stroke-opacity="1" stroke-miterlimit="4"/><path stroke-linecap="butt" transform="matrix(0.75, 0, 0, 0.75, -1.083317, 119.955612)" fill="none" stroke-linejoin="miter" d="M 0.00171424 0.501893 L 66.09547 0.501893 " stroke="#ffffff" stroke-width="1" stroke-opacity="1" stroke-miterlimit="4"/><path stroke-linecap="butt" transform="matrix(-0.586327, 0.467675, -0.467675, -0.586327, 63.587624, 109.035027)" fill="none" stroke-linejoin="miter" d="M -0.00148438 0.498263 L 24.955436 0.498033 " stroke="#ffffff" stroke-width="1" stroke-opacity="1" stroke-miterlimit="4"/><path stroke-linecap="butt" transform="matrix(0.749984, 0.00492355, -0.00492355, 0.749984, 63.36044, 108.178782)" fill="none" stroke-linejoin="miter" d="M 0.0018703 0.501207 L 76.16498 0.501216 " stroke="#ffffff" stroke-width="1" stroke-opacity="1" stroke-miterlimit="4"/><path stroke-linecap="butt" transform="matrix(0.591169, 0.46154, -0.46154, 0.591169, 120.568436, 108.556448)" fill="none" stroke-linejoin="miter" d="M -0.00220218 0.500925 L 24.247122 0.499857 " stroke="#ffffff" stroke-width="1" stroke-opacity="1" stroke-miterlimit="4"/><path stroke-linecap="butt" transform="matrix(0.749984, 0.00492355, -0.00492355, 0.749984, 134.67455, 120.039871)" fill="none" stroke-linejoin="miter" d="M -0.000291566 0.498935 L 76.162818 0.498944 " stroke="#ffffff" stroke-width="1" stroke-opacity="1" stroke-miterlimit="4"/><path stroke-linecap="butt" transform="matrix(0.645862, -0.381264, 0.381264, 0.645862, 119.120298, 191.007347)" fill="none" stroke-linejoin="miter" d="M 0.000614679 0.503078 L 32.177951 0.500777 " stroke="#ffffff" stroke-width="1" stroke-opacity="1" stroke-miterlimit="4"/><path stroke-linecap="butt" transform="matrix(0.75, -0.000000000000000465, 0.000000000000000465, 0.75, 140.092187, 178.774555)" fill="none" stroke-linejoin="miter" d="M 0.00208352 0.49851 L 47.757296 0.49851 " stroke="#ffffff" stroke-width="1" stroke-opacity="1" stroke-miterlimit="4"/><path stroke-linecap="butt" transform="matrix(-0.606899, -0.440652, 0.440652, -0.606899, 161.126741, 41.098425)" fill="none" stroke-linejoin="miter" d="M -0.00212432 0.498412 L 34.247785 0.500837 " stroke="#ffffff" stroke-width="1" stroke-opacity="1" stroke-miterlimit="4"/><path stroke-linecap="butt" transform="matrix(0.75, -0.000000000000000093, 0.000000000000000093, 0.75, 161.355214, 40.725261)" fill="none" stroke-linejoin="miter" d="M 0.00034017 0.501736 L 114.370141 0.501736 " stroke="#ffffff" stroke-width="1" stroke-opacity="1" stroke-miterlimit="4"/></svg>