<svg xmlns="http://www.w3.org/2000/svg" xmlns:xlink="http://www.w3.org/1999/xlink" width="400" zoomAndPan="magnify" viewBox="0 0 300 299.999988" height="400" preserveAspectRatio="xMidYMid meet" version="1.0">
    <path stroke-linecap="butt" transform="matrix(0.75, 0, 0, 0.75, 0.000006, 81.121057)" fill="none" stroke-linejoin="miter" d="M -0.000008 0.50005 L 287.885432 0.50005 " stroke="#ffffff" stroke-width="1" stroke-opacity="1" stroke-miterlimit="4"/>
    <path stroke-linecap="butt" transform="matrix(0.75, 0, 0, 0.75, 215.91576, 128.55412)" fill="none" stroke-linejoin="miter" d="M -0.00226382 0.500757 L 96.690452 0.500757 " stroke="#ffffff" stroke-width="1" stroke-opacity="1" stroke-miterlimit="4"/>
    <path stroke-linecap="butt" transform="matrix(0, -0.75, 0.75, 0, 215.537098, 128.925472)" fill="none" stroke-linejoin="miter" d="M -0.000412505 0.497411 L 63.244384 0.497411 " stroke="#ffffff" stroke-width="1" stroke-opacity="1" stroke-miterlimit="4"/>
    <path stroke-linecap="butt" transform="matrix(0.749998, 0.00187499, -0.00187499, 0.749998, 0.00094357, 149.624988)" fill="none" stroke-linejoin="miter" d="M -0.00000805343 0.500018 L 200.000635 0.500018 " stroke="#ffffff" stroke-width="1" stroke-opacity="1" stroke-miterlimit="4"/>
    <path stroke-linecap="butt" transform="matrix(0.75, 0, 0, 0.75, 0.000943425, 183.475384)" fill="none" stroke-linejoin="miter" d="M -0.0012579 0.501571 L 141.738337 0.501571 " stroke="#ffffff" stroke-width="1" stroke-opacity="1" stroke-miterlimit="4"/>
    <path stroke-linecap="butt" transform="matrix(0, 0.75, -0.75, 0, 121.627825, 39.942034)" fill="none" stroke-linejoin="miter" d="M -0.000837237 0.498558 L 79.535628 0.498558 " stroke="#ffffff" stroke-width="1" stroke-opacity="1" stroke-miterlimit="4"/>
    <path stroke-linecap="butt" transform="matrix(0.749985, -0.00466846, 0.00466846, 0.749985, 121.25276, 39.939738)" fill="none" stroke-linejoin="miter" d="M -0.00159798 0.502224 L 80.328091 0.502246 " stroke="#ffffff" stroke-width="1" stroke-opacity="1" stroke-miterlimit="4"/>
</svg>