<svg xmlns="http://www.w3.org/2000/svg" xmlns:xlink="http://www.w3.org/1999/xlink" width="400" zoomAndPan="magnify" viewBox="0 0 300 299.999988" height="400" preserveAspectRatio="xMidYMid meet" version="1.0"><path stroke-linecap="butt" transform="matrix(-0.75, 0, 0, -0.75, 299.236856, 234.464057)" fill="none" stroke-linejoin="miter" d="M -0.00190038 0.498951 L 146.248112 0.498951 " stroke="#ffffff" stroke-width="1" stroke-opacity="1" stroke-miterlimit="4"/><path stroke-linecap="butt" transform="matrix(-0.75, 0, 0, -0.75, 219.830832, 116.180916)" fill="none" stroke-linejoin="miter" d="M -0.00159894 0.501638 L 76.165074 0.501638 " stroke="#ffffff" stroke-width="1" stroke-opacity="1" stroke-miterlimit="4"/><path stroke-linecap="butt" transform="matrix(-0.505634, -0.553926, 0.553926, -0.505634, 189.00336, 234.087389)" fill="none" stroke-linejoin="miter" d="M -0.00217819 0.499685 L 41.539308 0.501302 " stroke="#ffffff" stroke-width="1" stroke-opacity="1" stroke-miterlimit="4"/><path stroke-linecap="butt" transform="matrix(-0.75, -0.000000001309, 0.000000001309, -0.75, 298.805636, 101.047396)" fill="none" stroke-linejoin="miter" d="M 0.00126466 0.500694 L 78.240854 0.500694 " stroke="#ffffff" stroke-width="1" stroke-opacity="1" stroke-miterlimit="4"/><path stroke-linecap="butt" transform="matrix(-0.75, 0, 0, -0.75, 299.237912, 36.397783)" fill="none" stroke-linejoin="miter" d="M -0.000492384 0.499127 L 141.577644 0.499127 " stroke="#ffffff" stroke-width="1" stroke-opacity="1" stroke-miterlimit="4"/><path stroke-linecap="butt" transform="matrix(-0.75, 0, 0, -0.75, 167.828356, 210.827649)" fill="none" stroke-linejoin="miter" d="M 0.000308392 0.499366 L 80.333648 0.499366 " stroke="#ffffff" stroke-width="1" stroke-opacity="1" stroke-miterlimit="4"/><path stroke-linecap="butt" transform="matrix(0.586327, -0.467675, 0.467675, 0.586327, 178.574787, 47.400191)" fill="none" stroke-linejoin="miter" d="M 0.00158676 0.497944 L 24.955259 0.501784 " stroke="#ffffff" stroke-width="1" stroke-opacity="1" stroke-miterlimit="4"/><path stroke-linecap="butt" transform="matrix(-0.605282, 0.44287, -0.44287, -0.605282, 240.124263, 101.279509)" fill="none" stroke-linejoin="miter" d="M 0.000280799 0.500711 L 34.759999 0.499867 " stroke="#ffffff" stroke-width="1" stroke-opacity="1" stroke-miterlimit="4"/><path stroke-linecap="butt" transform="matrix(-0.749984, -0.00492355, 0.00492355, -0.749984, 178.79775, 48.256436)" fill="none" stroke-linejoin="miter" d="M -0.000771527 0.498181 L 76.162338 0.49819 " stroke="#ffffff" stroke-width="1" stroke-opacity="1" stroke-miterlimit="4"/><path stroke-linecap="butt" transform="matrix(-0.591169, -0.46154, 0.46154, -0.591169, 121.679506, 47.506194)" fill="none" stroke-linejoin="miter" d="M -0.000142851 0.499556 L 24.245076 0.501694 " stroke="#ffffff" stroke-width="1" stroke-opacity="1" stroke-miterlimit="4"/><path stroke-linecap="butt" transform="matrix(-0.749984, -0.00492355, 0.00492355, -0.749984, 107.57596, 36.022761)" fill="none" stroke-linejoin="miter" d="M 0.000390396 0.499106 L 76.1635 0.499115 " stroke="#ffffff" stroke-width="1" stroke-opacity="1" stroke-miterlimit="4"/><path stroke-linecap="butt" transform="matrix(-0.75, -0.000000001309, 0.000000001309, -0.75, 299.996494, 189.557519)" fill="none" stroke-linejoin="miter" d="M 0.000534068 0.498567 L 85.849499 0.498567 " stroke="#ffffff" stroke-width="1" stroke-opacity="1" stroke-miterlimit="4"/><path stroke-linecap="butt" transform="matrix(-0.649519, -0.375, 0.375, -0.649519, 235.161198, 189.707459)" fill="none" stroke-linejoin="miter" d="M 0.0011275 0.499175 L 33.061244 0.500553 " stroke="#ffffff" stroke-width="1" stroke-opacity="1" stroke-miterlimit="4"/><path stroke-linecap="butt" transform="matrix(-0.75, -0.000000001309, 0.000000001309, -0.75, 213.877035, 177.174845)" fill="none" stroke-linejoin="miter" d="M -0.00249509 0.498751 L 44.1798 0.498751 " stroke="#ffffff" stroke-width="1" stroke-opacity="1" stroke-miterlimit="4"/><path stroke-linecap="butt" transform="matrix(-0.75, 0, 0, -0.75, 300.462901, 256.214072)" fill="none" stroke-linejoin="miter" d="M -0.00259078 0.498971 L 118.908877 0.498971 " stroke="#ffffff" stroke-width="1" stroke-opacity="1" stroke-miterlimit="4"/><path stroke-linecap="butt" transform="matrix(-0.605282, 0.44287, -0.44287, -0.605282, 211.280101, 256.44613)" fill="none" stroke-linejoin="miter" d="M 0.000898158 0.498936 L 34.757541 0.502295 " stroke="#ffffff" stroke-width="1" stroke-opacity="1" stroke-miterlimit="4"/><path stroke-linecap="butt" transform="matrix(-0.75, 0, 0, -0.75, 190.015097, 271.910075)" fill="none" stroke-linejoin="miter" d="M -0.000704157 0.499892 L 43.671174 0.499892 " stroke="#ffffff" stroke-width="1" stroke-opacity="1" stroke-miterlimit="4"/><path stroke-linecap="butt" transform="matrix(-0.75, 0.000000001309, -0.000000001309, -0.75, 297.590782, 59.506452)" fill="none" stroke-linejoin="miter" d="M 0.00125166 0.498186 L 118.959595 0.498186 " stroke="#ffffff" stroke-width="1" stroke-opacity="1" stroke-miterlimit="4"/><path stroke-linecap="butt" transform="matrix(0.586327, -0.467675, 0.467675, 0.586327, 193.884689, 70.508857)" fill="none" stroke-linejoin="miter" d="M -0.000364737 0.497595 L 24.956555 0.497364 " stroke="#ffffff" stroke-width="1" stroke-opacity="1" stroke-miterlimit="4"/><path stroke-linecap="butt" transform="matrix(-0.749994, -0.00291908, 0.00291908, -0.749994, 194.10437, 71.365101)" fill="none" stroke-linejoin="miter" d="M 0.0004907 0.502428 L 64.230148 0.502439 " stroke="#ffffff" stroke-width="1" stroke-opacity="1" stroke-miterlimit="4"/><path stroke-linecap="butt" transform="matrix(-0.75, 0, 0, -0.75, 300.462111, 132.421028)" fill="none" stroke-linejoin="miter" d="M 0.00156475 0.498871 L 66.09532 0.498871 " stroke="#ffffff" stroke-width="1" stroke-opacity="1" stroke-miterlimit="4"/><path stroke-linecap="butt" transform="matrix(0.586327, -0.467675, 0.467675, 0.586327, 235.791695, 143.341613)" fill="none" stroke-linejoin="miter" d="M 0.000273309 0.50353 L 24.953122 0.500052 " stroke="#ffffff" stroke-width="1" stroke-opacity="1" stroke-miterlimit="4"/><path stroke-linecap="butt" transform="matrix(-0.749984, -0.00492355, 0.00492355, -0.749984, 236.014645, 144.197859)" fill="none" stroke-linejoin="miter" d="M 0.00196399 0.498184 L 76.165074 0.498193 " stroke="#ffffff" stroke-width="1" stroke-opacity="1" stroke-miterlimit="4"/><path stroke-linecap="butt" transform="matrix(-0.591169, -0.46154, 0.46154, -0.591169, 178.804107, 143.820192)" fill="none" stroke-linejoin="miter" d="M 0.000667316 0.501459 L 24.242681 0.499491 " stroke="#ffffff" stroke-width="1" stroke-opacity="1" stroke-miterlimit="4"/><path stroke-linecap="butt" transform="matrix(-0.749984, -0.00492355, 0.00492355, -0.749984, 164.700549, 132.336772)" fill="none" stroke-linejoin="miter" d="M -0.000144456 0.501124 L 76.162965 0.501133 " stroke="#ffffff" stroke-width="1" stroke-opacity="1" stroke-miterlimit="4"/><path stroke-linecap="butt" transform="matrix(-0.645862, 0.381264, -0.381264, -0.645862, 182.105924, 177.238697)" fill="none" stroke-linejoin="miter" d="M 0.000257529 0.502789 L 32.177594 0.500488 " stroke="#ffffff" stroke-width="1" stroke-opacity="1" stroke-miterlimit="4"/><path stroke-linecap="butt" transform="matrix(-0.75, 0, 0, -0.75, 161.130374, 189.471503)" fill="none" stroke-linejoin="miter" d="M 0.00195759 0.498462 L 47.75717 0.498462 " stroke="#ffffff" stroke-width="1" stroke-opacity="1" stroke-miterlimit="4"/><path stroke-linecap="butt" transform="matrix(0.606899, 0.440652, -0.440652, 0.606899, 136.924346, 255.840886)" fill="none" stroke-linejoin="miter" d="M -0.000812649 0.500912 L 34.246035 0.499124 " stroke="#ffffff" stroke-width="1" stroke-opacity="1" stroke-miterlimit="4"/><path stroke-linecap="butt" transform="matrix(-0.75, 0, 0, -0.75, 136.696605, 256.214072)" fill="none" stroke-linejoin="miter" d="M 0.00172365 0.498971 L 114.371525 0.498971 " stroke="#ffffff" stroke-width="1" stroke-opacity="1" stroke-miterlimit="4"/></svg>